<svg width="30" height="30" viewBox="0 0 30 30" fill="none" xmlns="http://www.w3.org/2000/svg">
<circle cx="3.75" cy="3.75" r="3.75" transform="matrix(-1 0 0 1 27.5 2.5)" fill="#D6003D" stroke="#D6003D" stroke-width="1.5"/>
<path d="M17.5 2.75005C16.6922 2.58608 15.8562 2.5 15 2.5C8.09644 2.5 2.5 8.09644 2.5 15C2.5 16.9996 2.96952 18.8895 3.80433 20.5656C4.02617 21.011 4.10001 21.5201 3.9714 22.0008L3.22689 24.7833C2.90369 25.9912 4.00877 27.0963 5.21668 26.7731L7.99923 26.0286C8.47992 25.9 8.98901 25.9738 9.43441 26.1957C11.1105 27.0305 13.0004 27.5 15 27.5C21.9036 27.5 27.5 21.9036 27.5 15C27.5 14.1438 27.4139 13.3078 27.25 12.5" stroke="#0554EF" stroke-width="2" stroke-linecap="round"/>
</svg>
