<svg width="18" height="18" viewBox="0 0 18 18" fill="none" xmlns="http://www.w3.org/2000/svg">
<g clip-path="url(#clip0_7759_867)">
<path d="M1.77305 9.71856C1.48847 7.74077 1.34618 6.75188 1.75152 5.90637C2.15687 5.06086 3.01964 4.54691 4.74518 3.51902L5.78381 2.90031C7.35078 1.96688 8.13427 1.50016 9 1.50016C9.86573 1.50016 10.6492 1.96688 12.2162 2.90031L13.2548 3.51902C14.9804 4.54691 15.8431 5.06086 16.2485 5.90637C16.6538 6.75188 16.5115 7.74077 16.2269 9.71856L16.0179 11.1716C15.6523 13.7122 15.4695 14.9824 14.5882 15.7413C13.7069 16.5002 12.4145 16.5002 9.82956 16.5002H8.17044C5.58553 16.5002 4.29307 16.5002 3.41177 15.7413C2.53047 14.9824 2.34769 13.7122 1.98213 11.1716L1.77305 9.71856Z" stroke="#A1A1AA" stroke-width="1.25"/>
<path d="M11.25 13.5H6.75" stroke="#A1A1AA" stroke-width="1.25" stroke-linecap="round"/>
</g>
<defs>
<clipPath id="clip0_7759_867">
<rect width="18" height="18" fill="white"/>
</clipPath>
</defs>
</svg>
