<svg width="18" height="18" viewBox="0 0 18 18" fill="none" xmlns="http://www.w3.org/2000/svg">
<g clip-path="url(#clip0_7759_918)">
<path d="M11.5447 3.04024L11.1266 3.50479L11.5447 3.04024ZM14.5138 5.71241L14.0957 6.17697L14.5138 5.71241ZM16.2405 7.61557L15.6696 7.86985L15.6696 7.86985L16.2405 7.61557ZM2.37868 15.6213L2.82062 15.1794L2.82062 15.1794L2.37868 15.6213ZM15.6213 15.6213L15.1794 15.1794L15.1794 15.1794L15.6213 15.6213ZM10.5 16.5V15.875H7.5V16.5V17.125H10.5V16.5ZM1.5 10.5H2.125V7.5H1.5H0.875V10.5H1.5ZM16.5 10.1722H15.875V10.5H16.5H17.125V10.1722H16.5ZM11.5447 3.04024L11.1266 3.50479L14.0957 6.17697L14.5138 5.71241L14.9319 5.24785L11.9628 2.57568L11.5447 3.04024ZM16.5 10.1722H17.125C17.125 8.91143 17.1376 8.09369 16.8114 7.3613L16.2405 7.61557L15.6696 7.86985C15.8624 8.3028 15.875 8.80101 15.875 10.1722H16.5ZM14.5138 5.71241L14.0957 6.17697C15.1149 7.09423 15.4767 7.43689 15.6696 7.86985L16.2405 7.61557L16.8114 7.3613C16.4853 6.62891 15.869 6.09125 14.9319 5.24785L14.5138 5.71241ZM7.52234 1.5V2.125C8.71342 2.125 9.14731 2.13465 9.533 2.28265L9.75692 1.69914L9.98083 1.11563C9.32863 0.865351 8.61877 0.875 7.52234 0.875V1.5ZM11.5447 3.04024L11.9628 2.57568C11.1518 1.84577 10.6329 1.36587 9.98083 1.11563L9.75692 1.69914L9.533 2.28265C9.91878 2.43069 10.2458 2.71209 11.1266 3.50479L11.5447 3.04024ZM7.5 16.5V15.875C6.06812 15.875 5.05708 15.8737 4.29146 15.7707C3.54383 15.6702 3.12448 15.4832 2.82062 15.1794L2.37868 15.6213L1.93674 16.0633C2.51156 16.6381 3.23866 16.8904 4.1249 17.0096C4.99317 17.1263 6.10346 17.125 7.5 17.125V16.5ZM1.5 10.5H0.875C0.875 11.8965 0.873673 13.0068 0.990408 13.8751C1.10956 14.7613 1.36192 15.4884 1.93674 16.0633L2.37868 15.6213L2.82062 15.1794C2.51676 14.8755 2.32978 14.4562 2.22926 13.7085C2.12633 12.9429 2.125 11.9319 2.125 10.5H1.5ZM10.5 16.5V17.125C11.8965 17.125 13.0068 17.1263 13.8751 17.0096C14.7613 16.8904 15.4884 16.6381 16.0633 16.0633L15.6213 15.6213L15.1794 15.1794C14.8755 15.4832 14.4562 15.6702 13.7085 15.7707C12.9429 15.8737 11.9319 15.875 10.5 15.875V16.5ZM16.5 10.5H15.875C15.875 11.9319 15.8737 12.9429 15.7707 13.7085C15.6702 14.4562 15.4832 14.8755 15.1794 15.1794L15.6213 15.6213L16.0633 16.0633C16.6381 15.4884 16.8904 14.7613 17.0096 13.8751C17.1263 13.0068 17.125 11.8965 17.125 10.5H16.5ZM1.5 7.5H2.125C2.125 6.06812 2.12633 5.05708 2.22926 4.29146C2.32978 3.54383 2.51676 3.12448 2.82062 2.82062L2.37868 2.37868L1.93674 1.93674C1.36192 2.51156 1.10956 3.23866 0.990408 4.1249C0.873673 4.99317 0.875 6.10346 0.875 7.5H1.5ZM7.52234 1.5V0.875C6.11829 0.875 5.00263 0.873684 4.13086 0.990358C3.24159 1.10938 2.51205 1.36143 1.93674 1.93674L2.37868 2.37868L2.82062 2.82062C3.12399 2.51725 3.54462 2.32996 4.29668 2.22931C5.06624 2.12632 6.08307 2.125 7.52234 2.125V1.5Z" fill="#A1A1AA"/>
<path d="M9.75 1.875V3.75C9.75 5.51777 9.75 6.40165 10.2992 6.95083C10.8483 7.5 11.7322 7.5 13.5 7.5H16.5" stroke="#A1A1AA" stroke-width="1.25"/>
</g>
<defs>
<clipPath id="clip0_7759_918">
<rect width="18" height="18" fill="white"/>
</clipPath>
</defs>
</svg>
