<svg width="18" height="18" viewBox="0 0 18 18" fill="none" xmlns="http://www.w3.org/2000/svg">
<circle cx="9" cy="9" r="2.25" stroke="#A1A1AA" stroke-width="1.25"/>
<path d="M10.3249 1.61418C10.0492 1.5 9.69976 1.5 9.00085 1.5C8.30193 1.5 7.95248 1.5 7.67682 1.61418C7.30928 1.76642 7.01727 2.05843 6.86503 2.42597C6.79553 2.59376 6.76833 2.78888 6.75769 3.07349C6.74205 3.49176 6.52755 3.87892 6.16506 4.0882C5.80258 4.29747 5.36005 4.28965 4.99 4.09407C4.73819 3.96098 4.55561 3.88697 4.37556 3.86326C3.98113 3.81134 3.58224 3.91822 3.26662 4.1604C3.02991 4.34203 2.85518 4.64467 2.50573 5.24995C2.15627 5.85522 1.98154 6.15786 1.9426 6.45368C1.89067 6.8481 1.99756 7.24699 2.23974 7.56261C2.35028 7.70667 2.50563 7.82777 2.74674 7.97927C3.1012 8.20199 3.32927 8.58139 3.32925 9.00002C3.32923 9.41859 3.10117 9.79795 2.74674 10.0206C2.50559 10.1722 2.35021 10.2933 2.23966 10.4373C1.99748 10.753 1.8906 11.1518 1.94253 11.5463C1.98147 11.8421 2.1562 12.1447 2.50566 12.75C2.85511 13.3553 3.02984 13.6579 3.26655 13.8395C3.58217 14.0817 3.98106 14.1886 4.37548 14.1367C4.55553 14.113 4.73809 14.039 4.98988 13.9059C5.35996 13.7103 5.80252 13.7025 6.16503 13.9118C6.52753 14.1211 6.74205 14.5083 6.75769 14.9265C6.76833 15.2111 6.79553 15.4063 6.86503 15.574C7.01727 15.9416 7.30928 16.2336 7.67682 16.3858C7.95248 16.5 8.30193 16.5 9.00085 16.5C9.69976 16.5 10.0492 16.5 10.3249 16.3858C10.6924 16.2336 10.9844 15.9416 11.1367 15.574C11.2062 15.4062 11.2334 15.2111 11.244 14.9265C11.2596 14.5082 11.4741 14.1211 11.8366 13.9118C12.1991 13.7025 12.6417 13.7103 13.0118 13.9059C13.2635 14.0389 13.4461 14.1129 13.6261 14.1366C14.0206 14.1886 14.4195 14.0817 14.7351 13.8395C14.9718 13.6579 15.1465 13.3552 15.496 12.7499C15.8454 12.1447 16.0201 11.842 16.0591 11.5462C16.111 11.1518 16.0041 10.7529 15.762 10.4373C15.6514 10.2932 15.496 10.1721 15.2549 10.0206C14.9005 9.7979 14.6724 9.41852 14.6724 8.99993C14.6725 8.58139 14.9005 8.20206 15.2549 7.97939C15.4961 7.82786 15.6515 7.70674 15.762 7.56266C16.0042 7.24705 16.1111 6.84815 16.0592 6.45373C16.0202 6.15791 15.8455 5.85528 15.496 5.25C15.1466 4.64472 14.9719 4.34209 14.7351 4.16045C14.4195 3.91827 14.0206 3.81139 13.6262 3.86331C13.4462 3.88702 13.2636 3.96102 13.0118 4.0941C12.6417 4.28969 12.1992 4.29751 11.8367 4.08822C11.4742 3.87893 11.2596 3.49175 11.244 3.07345C11.2334 2.78886 11.2062 2.59375 11.1367 2.42597C10.9844 2.05843 10.6924 1.76642 10.3249 1.61418Z" stroke="#A1A1AA" stroke-width="1.25"/>
</svg>
