<svg width="17" height="15" viewBox="0 0 17 15" fill="none" xmlns="http://www.w3.org/2000/svg">
<path fill-rule="evenodd" clip-rule="evenodd" d="M5.09874 0.178698C5.31071 0.405808 5.29843 0.761752 5.07132 0.973721L1.85704 3.97372C1.74295 4.0802 1.58975 4.1345 1.43407 4.12364C1.27839 4.11277 1.13422 4.03772 1.03603 3.91643L0.125318 2.79143C-0.0701484 2.54997 -0.0328643 2.19577 0.208595 2.0003C0.450054 1.80484 0.804252 1.84212 0.999719 2.08358L1.53067 2.73946L4.30371 0.151284C4.53082 -0.0606856 4.88677 -0.0484117 5.09874 0.178698ZM7.50002 2.0625C7.50002 1.75184 7.75186 1.5 8.06252 1.5H15.5625C15.8732 1.5 16.125 1.75184 16.125 2.0625C16.125 2.37316 15.8732 2.625 15.5625 2.625H8.06252C7.75186 2.625 7.50002 2.37316 7.50002 2.0625ZM5.09874 5.4287C5.31071 5.65581 5.29843 6.01175 5.07132 6.22372L1.85704 9.22372C1.74295 9.3302 1.58975 9.3845 1.43407 9.37364C1.27839 9.36277 1.13422 9.28772 1.03603 9.16643L0.125318 8.04143C-0.0701484 7.79997 -0.0328643 7.44577 0.208595 7.2503C0.450054 7.05483 0.804252 7.09212 0.999719 7.33358L1.53067 7.98946L4.30371 5.40128C4.53082 5.18931 4.88677 5.20159 5.09874 5.4287ZM7.50002 7.3125C7.50002 7.00184 7.75186 6.75 8.06252 6.75H15.5625C15.8732 6.75 16.125 7.00184 16.125 7.3125C16.125 7.62316 15.8732 7.875 15.5625 7.875H8.06252C7.75186 7.875 7.50002 7.62316 7.50002 7.3125ZM5.09874 10.6787C5.31071 10.9058 5.29843 11.2618 5.07132 11.4737L1.85704 14.4737C1.74295 14.5802 1.58975 14.6345 1.43407 14.6236C1.27839 14.6128 1.13422 14.5377 1.03603 14.4164L0.125318 13.2914C-0.0701484 13.05 -0.0328643 12.6958 0.208595 12.5003C0.450054 12.3048 0.804252 12.3421 0.999719 12.5836L1.53067 13.2395L4.30371 10.6513C4.53082 10.4393 4.88677 10.4516 5.09874 10.6787ZM7.50002 12.5625C7.50002 12.2518 7.75186 12 8.06252 12H15.5625C15.8732 12 16.125 12.2518 16.125 12.5625C16.125 12.8732 15.8732 13.125 15.5625 13.125H8.06252C7.75186 13.125 7.50002 12.8732 7.50002 12.5625Z" fill="#27272A"/>
</svg>
